<?xml version="1.0" standalone="no"?>
<svg xmlns:xlink="http://www.w3.org/1999/xlink" id="wave" style="transform:rotate(180deg); transition: 0.3s" viewBox="0 0 1440 100" version="1.1" xmlns="http://www.w3.org/2000/svg"><defs><linearGradient id="sw-gradient-0" x1="0" x2="0" y1="1" y2="0"><stop stop-color="rgba(255, 249, 234, 1)" offset="0%"/><stop stop-color="rgba(255, 249, 234, 1)" offset="100%"/></linearGradient></defs><path style="transform:translate(0, 0px); opacity:1" fill="url(#sw-gradient-0)" d="M0,0L34.3,3.3C68.6,7,137,13,206,16.7C274.3,20,343,20,411,16.7C480,13,549,7,617,8.3C685.7,10,754,20,823,31.7C891.4,43,960,57,1029,66.7C1097.1,77,1166,83,1234,75C1302.9,67,1371,43,1440,41.7C1508.6,40,1577,60,1646,68.3C1714.3,77,1783,73,1851,73.3C1920,73,1989,77,2057,76.7C2125.7,77,2194,73,2263,65C2331.4,57,2400,43,2469,31.7C2537.1,20,2606,10,2674,6.7C2742.9,3,2811,7,2880,10C2948.6,13,3017,17,3086,25C3154.3,33,3223,47,3291,45C3360,43,3429,27,3497,23.3C3565.7,20,3634,30,3703,40C3771.4,50,3840,60,3909,61.7C3977.1,63,4046,57,4114,46.7C4182.9,37,4251,23,4320,21.7C4388.6,20,4457,30,4526,41.7C4594.3,53,4663,67,4731,73.3C4800,80,4869,80,4903,80L4937.1,80L4937.1,100L4902.9,100C4868.6,100,4800,100,4731,100C4662.9,100,4594,100,4526,100C4457.1,100,4389,100,4320,100C4251.4,100,4183,100,4114,100C4045.7,100,3977,100,3909,100C3840,100,3771,100,3703,100C3634.3,100,3566,100,3497,100C3428.6,100,3360,100,3291,100C3222.9,100,3154,100,3086,100C3017.1,100,2949,100,2880,100C2811.4,100,2743,100,2674,100C2605.7,100,2537,100,2469,100C2400,100,2331,100,2263,100C2194.3,100,2126,100,2057,100C1988.6,100,1920,100,1851,100C1782.9,100,1714,100,1646,100C1577.1,100,1509,100,1440,100C1371.4,100,1303,100,1234,100C1165.7,100,1097,100,1029,100C960,100,891,100,823,100C754.3,100,686,100,617,100C548.6,100,480,100,411,100C342.9,100,274,100,206,100C137.1,100,69,100,34,100L0,100Z"/></svg>